<svg xmlns="http://www.w3.org/2000/svg" viewBox="0 0 1000 300" width="1000" height="300" role="img" aria-label="AIOps: telemetry feeds a machine-learning engine that detects anomalies and triggers auto-remediation">

  <defs>
    <linearGradient id="aibg" x1="0" y1="0" x2="1" y2="1">
      <stop offset="0" stop-color="#06121C"/><stop offset="0.5" stop-color="#081C2A"/><stop offset="1" stop-color="#0A2436"/>
    </linearGradient>
    <radialGradient id="aiglow" cx="0.5" cy="0.5" r="0.55"><stop offset="0" stop-color="#0E5A6E" stop-opacity="0.5"/><stop offset="1" stop-color="#0E5A6E" stop-opacity="0"/></radialGradient>
    <radialGradient id="nodeC" cx="0.5" cy="0.4" r="0.6"><stop offset="0" stop-color="#C8F4FF"/><stop offset="0.5" stop-color="#5BC8E0"/><stop offset="1" stop-color="#2C8FA8"/></radialGradient>
    <linearGradient id="chipG" x1="0" y1="0" x2="0" y2="1"><stop offset="0" stop-color="#0F2A38"/><stop offset="1" stop-color="#0B2030"/></linearGradient>
    <filter id="aig" x="-100%" y="-100%" width="300%" height="300%"><feGaussianBlur stdDeviation="2.4" result="b"/><feMerge><feMergeNode in="b"/><feMergeNode in="SourceGraphic"/></feMerge></filter>
    <filter id="aibigg" x="-150%" y="-150%" width="400%" height="400%"><feGaussianBlur stdDeviation="7" result="b"/><feMerge><feMergeNode in="b"/><feMergeNode in="SourceGraphic"/></feMerge></filter>
    <filter id="aidrop" x="-70%" y="-70%" width="240%" height="260%"><feDropShadow dx="0" dy="6" stdDeviation="6" flood-color="#000" flood-opacity="0.45"/></filter>
    <style>.l{font-family:'JetBrains Mono',ui-monospace,monospace;}</style>
  </defs>

  <rect width="1000" height="300" fill="url(#aibg)"/>
  <rect width="1000" height="300" fill="url(#aiglow)"/>
  <text class="l" x="34" y="40" font-size="13" letter-spacing="3" fill="#5BC8E0">AIOPS · INTELLIGENT OPERATIONS</text>
  <circle cx="966" cy="35" r="4.5" fill="#5BC8E0" filter="url(#aig)"><animate attributeName="opacity" values="1;0.3;1" dur="1.8s" repeatCount="indefinite"/></circle>
  <path d="M220 112 C317.5 112, 317.5 112, 408 112" fill="none" stroke="#2C6B7E" stroke-width="1.4" stroke-dasharray="5 7"><animate attributeName="stroke-dashoffset" values="24;0" dur="1.3s" repeatCount="indefinite"/></path><path d="M220 150 C317.5 150, 317.5 150, 408 150" fill="none" stroke="#2C6B7E" stroke-width="1.4" stroke-dasharray="5 7"><animate attributeName="stroke-dashoffset" values="24;0" dur="1.3s" repeatCount="indefinite"/></path><path d="M220 188 C317.5 188, 317.5 188, 408 188" fill="none" stroke="#2C6B7E" stroke-width="1.4" stroke-dasharray="5 7"><animate attributeName="stroke-dashoffset" values="24;0" dur="1.3s" repeatCount="indefinite"/></path>
  
  <rect x="372" y="74" width="296" height="152" rx="26" fill="#0A2230" fill-opacity="0.55" stroke="#5BC8E0" stroke-opacity="0.35" stroke-width="1.6"/>
  <rect x="372" y="74" width="296" height="152" rx="26" fill="none" stroke="#5BC8E0" stroke-opacity="0.12" stroke-width="6"/>
  <text class="l" x="520" y="96" text-anchor="middle" font-size="11" letter-spacing="2.5" fill="#5BC8E0">ML  ENGINE</text>
  <text class="l" x="520" y="214" text-anchor="middle" font-size="9" letter-spacing="1.5" fill="#3E7E92" fill-opacity="0.9">anomaly detection · forecasting</text>

  <g><line x1="415" y1="112" x2="490" y2="96" stroke="#5BC8E0" stroke-opacity="0.16" stroke-width="1"/><line x1="415" y1="112" x2="490" y2="130" stroke="#5BC8E0" stroke-opacity="0.16" stroke-width="1"/><line x1="415" y1="112" x2="490" y2="164" stroke="#5BC8E0" stroke-opacity="0.16" stroke-width="1"/><line x1="415" y1="112" x2="490" y2="198" stroke="#5BC8E0" stroke-opacity="0.16" stroke-width="1"/><line x1="415" y1="150" x2="490" y2="96" stroke="#5BC8E0" stroke-opacity="0.16" stroke-width="1"/><line x1="415" y1="150" x2="490" y2="130" stroke="#5BC8E0" stroke-opacity="0.16" stroke-width="1"/><line x1="415" y1="150" x2="490" y2="164" stroke="#5BC8E0" stroke-opacity="0.16" stroke-width="1"/><line x1="415" y1="150" x2="490" y2="198" stroke="#5BC8E0" stroke-opacity="0.16" stroke-width="1"/><line x1="415" y1="188" x2="490" y2="96" stroke="#5BC8E0" stroke-opacity="0.16" stroke-width="1"/><line x1="415" y1="188" x2="490" y2="130" stroke="#5BC8E0" stroke-opacity="0.16" stroke-width="1"/><line x1="415" y1="188" x2="490" y2="164" stroke="#5BC8E0" stroke-opacity="0.16" stroke-width="1"/><line x1="415" y1="188" x2="490" y2="198" stroke="#5BC8E0" stroke-opacity="0.16" stroke-width="1"/><line x1="490" y1="96" x2="565" y2="112" stroke="#5BC8E0" stroke-opacity="0.16" stroke-width="1"/><line x1="490" y1="96" x2="565" y2="150" stroke="#5BC8E0" stroke-opacity="0.16" stroke-width="1"/><line x1="490" y1="96" x2="565" y2="188" stroke="#5BC8E0" stroke-opacity="0.16" stroke-width="1"/><line x1="490" y1="130" x2="565" y2="112" stroke="#5BC8E0" stroke-opacity="0.16" stroke-width="1"/><line x1="490" y1="130" x2="565" y2="150" stroke="#5BC8E0" stroke-opacity="0.16" stroke-width="1"/><line x1="490" y1="130" x2="565" y2="188" stroke="#5BC8E0" stroke-opacity="0.16" stroke-width="1"/><line x1="490" y1="164" x2="565" y2="112" stroke="#5BC8E0" stroke-opacity="0.16" stroke-width="1"/><line x1="490" y1="164" x2="565" y2="150" stroke="#5BC8E0" stroke-opacity="0.16" stroke-width="1"/><line x1="490" y1="164" x2="565" y2="188" stroke="#5BC8E0" stroke-opacity="0.16" stroke-width="1"/><line x1="490" y1="198" x2="565" y2="112" stroke="#5BC8E0" stroke-opacity="0.16" stroke-width="1"/><line x1="490" y1="198" x2="565" y2="150" stroke="#5BC8E0" stroke-opacity="0.16" stroke-width="1"/><line x1="490" y1="198" x2="565" y2="188" stroke="#5BC8E0" stroke-opacity="0.16" stroke-width="1"/><line x1="565" y1="112" x2="640" y2="131" stroke="#5BC8E0" stroke-opacity="0.16" stroke-width="1"/><line x1="565" y1="112" x2="640" y2="169" stroke="#5BC8E0" stroke-opacity="0.16" stroke-width="1"/><line x1="565" y1="150" x2="640" y2="131" stroke="#5BC8E0" stroke-opacity="0.16" stroke-width="1"/><line x1="565" y1="150" x2="640" y2="169" stroke="#5BC8E0" stroke-opacity="0.16" stroke-width="1"/><line x1="565" y1="188" x2="640" y2="131" stroke="#5BC8E0" stroke-opacity="0.16" stroke-width="1"/><line x1="565" y1="188" x2="640" y2="169" stroke="#5BC8E0" stroke-opacity="0.16" stroke-width="1"/></g>
  <g><line x1="415" y1="150" x2="490" y2="130" stroke="#7FE3F5" stroke-width="1.6" stroke-opacity="0"><animate attributeName="stroke-opacity" values="0;0.9;0" dur="2.2s" begin="0.0s" repeatCount="indefinite"/></line><line x1="415" y1="150" x2="490" y2="96" stroke="#7FE3F5" stroke-width="1.6" stroke-opacity="0"><animate attributeName="stroke-opacity" values="0;0.9;0" dur="2.2s" begin="0.3s" repeatCount="indefinite"/></line><line x1="490" y1="96" x2="565" y2="188" stroke="#7FE3F5" stroke-width="1.6" stroke-opacity="0"><animate attributeName="stroke-opacity" values="0;0.9;0" dur="2.2s" begin="0.6s" repeatCount="indefinite"/></line><line x1="490" y1="96" x2="565" y2="150" stroke="#7FE3F5" stroke-width="1.6" stroke-opacity="0"><animate attributeName="stroke-opacity" values="0;0.9;0" dur="2.2s" begin="0.9s" repeatCount="indefinite"/></line><line x1="565" y1="188" x2="640" y2="131" stroke="#7FE3F5" stroke-width="1.6" stroke-opacity="0"><animate attributeName="stroke-opacity" values="0;0.9;0" dur="2.2s" begin="1.2s" repeatCount="indefinite"/></line><line x1="565" y1="188" x2="640" y2="131" stroke="#7FE3F5" stroke-width="1.6" stroke-opacity="0"><animate attributeName="stroke-opacity" values="0;0.9;0" dur="2.2s" begin="1.5s" repeatCount="indefinite"/></line></g>
  <g><circle cx="415" cy="112" r="5.5" fill="url(#nodeC)" filter="url(#aig)"><animate attributeName="r" values="4.5;6.5;4.5" dur="2.6s" repeatCount="indefinite"/></circle><circle cx="415" cy="150" r="5.5" fill="url(#nodeC)" filter="url(#aig)"><animate attributeName="r" values="4.5;6.5;4.5" dur="2.6s" repeatCount="indefinite"/></circle><circle cx="415" cy="188" r="5.5" fill="url(#nodeC)" filter="url(#aig)"><animate attributeName="r" values="4.5;6.5;4.5" dur="2.6s" repeatCount="indefinite"/></circle><circle cx="490" cy="96" r="5.5" fill="url(#nodeC)" filter="url(#aig)"><animate attributeName="r" values="4.5;6.5;4.5" dur="2.4s" repeatCount="indefinite"/></circle><circle cx="490" cy="130" r="5.5" fill="url(#nodeC)" filter="url(#aig)"><animate attributeName="r" values="4.5;6.5;4.5" dur="2.4s" repeatCount="indefinite"/></circle><circle cx="490" cy="164" r="5.5" fill="url(#nodeC)" filter="url(#aig)"><animate attributeName="r" values="4.5;6.5;4.5" dur="2.4s" repeatCount="indefinite"/></circle><circle cx="490" cy="198" r="5.5" fill="url(#nodeC)" filter="url(#aig)"><animate attributeName="r" values="4.5;6.5;4.5" dur="2.4s" repeatCount="indefinite"/></circle><circle cx="565" cy="112" r="5.5" fill="url(#nodeC)" filter="url(#aig)"><animate attributeName="r" values="4.5;6.5;4.5" dur="2.9s" repeatCount="indefinite"/></circle><circle cx="565" cy="150" r="5.5" fill="url(#nodeC)" filter="url(#aig)"><animate attributeName="r" values="4.5;6.5;4.5" dur="2.9s" repeatCount="indefinite"/></circle><circle cx="565" cy="188" r="5.5" fill="url(#nodeC)" filter="url(#aig)"><animate attributeName="r" values="4.5;6.5;4.5" dur="2.9s" repeatCount="indefinite"/></circle><circle cx="640" cy="131" r="5.5" fill="url(#nodeC)" filter="url(#aig)"><animate attributeName="r" values="4.5;6.5;4.5" dur="2.7s" repeatCount="indefinite"/></circle><circle cx="640" cy="169" r="5.5" fill="url(#nodeC)" filter="url(#aig)"><animate attributeName="r" values="4.5;6.5;4.5" dur="2.7s" repeatCount="indefinite"/></circle></g>
  <g filter="url(#aidrop)"><rect x="70" y="92.0" width="150" height="40" rx="9" fill="url(#chipG)" stroke="#5BC8E0" stroke-opacity="0.5" stroke-width="1.3"/><g transform="translate(92,112)"><g stroke="#5BC8E0" stroke-width="2" stroke-linecap="round"><line x1="-7" y1="6" x2="-7" y2="0"/><line x1="-1" y1="6" x2="-1" y2="-5"/><line x1="5" y1="6" x2="5" y2="-2"/></g></g><text class="l" x="112" y="116" font-size="12" fill="#DDEFF7">Metrics</text></g><g filter="url(#aidrop)"><rect x="70" y="130.0" width="150" height="40" rx="9" fill="url(#chipG)" stroke="#5BC8E0" stroke-opacity="0.5" stroke-width="1.3"/><g transform="translate(92,150)"><g stroke="#5BC8E0" stroke-width="2" stroke-linecap="round"><line x1="-8" y1="-5" x2="6" y2="-5"/><line x1="-8" y1="0" x2="8" y2="0"/><line x1="-8" y1="5" x2="3" y2="5"/></g></g><text class="l" x="112" y="154" font-size="12" fill="#DDEFF7">Logs</text></g><g filter="url(#aidrop)"><rect x="70" y="168.0" width="150" height="40" rx="9" fill="url(#chipG)" stroke="#5BC8E0" stroke-opacity="0.5" stroke-width="1.3"/><g transform="translate(92,188)"><path d="M-9,0 H-4 L-1,-7 L3,7 L6,0 H9" fill="none" stroke="#5BC8E0" stroke-width="2" stroke-linecap="round" stroke-linejoin="round"/></g><text class="l" x="112" y="192" font-size="12" fill="#DDEFF7">Traces</text></g>
  <path d="M640 131 C711.0 131, 711.0 124, 782 124" fill="none" stroke="#E8B44A" stroke-opacity="0.45" stroke-width="1.5" stroke-dasharray="5 7"><animate attributeName="stroke-dashoffset" values="24;0" dur="1.3s" repeatCount="indefinite"/></path><circle r="3" fill="#E8B44A" filter="url(#aig)"><animateMotion path="M640 131 C711.0 131, 711.0 124, 782 124" dur="2.2s" repeatCount="indefinite"/><animate attributeName="opacity" values="0;1;0" dur="2.2s" repeatCount="indefinite"/></circle><path d="M640 169 C711.0 169, 711.0 196, 782 196" fill="none" stroke="#5FD0A8" stroke-opacity="0.45" stroke-width="1.5" stroke-dasharray="5 7"><animate attributeName="stroke-dashoffset" values="24;0" dur="1.3s" repeatCount="indefinite"/></path><circle r="3" fill="#5FD0A8" filter="url(#aig)"><animateMotion path="M640 169 C711.0 169, 711.0 196, 782 196" dur="2.2s" repeatCount="indefinite"/><animate attributeName="opacity" values="0;1;0" dur="2.2s" repeatCount="indefinite"/></circle>
  <g filter="url(#aidrop)"><rect x="782" y="95.0" width="190" height="58" rx="11" fill="url(#chipG)" stroke="#E8B44A" stroke-opacity="0.6" stroke-width="1.4"/><text class="l" x="798" y="116" font-size="12.5" fill="#EAF2FB">Anomaly Detected</text><text class="l" x="798" y="133" font-size="9" fill="#E8B44A">root-cause + alert</text><g transform="translate(942,124)">
  <path d="M-22,6 L-14,3 L-8,5 L-2,-12 L4,4 L12,1 L20,2" fill="none" stroke="#E8B44A" stroke-width="2" stroke-linecap="round" stroke-linejoin="round"/>
  <circle cx="-2" cy="-12" r="3.5" fill="#E8B44A" filter="url(#aig)"><animate attributeName="opacity" values="1;0.3;1" dur="1.2s" repeatCount="indefinite"/></circle>
</g></g><g filter="url(#aidrop)"><rect x="782" y="167.0" width="190" height="58" rx="11" fill="url(#chipG)" stroke="#5FD0A8" stroke-opacity="0.6" stroke-width="1.4"/><text class="l" x="798" y="188" font-size="12.5" fill="#EAF2FB">Auto-Remediate</text><text class="l" x="798" y="205" font-size="9" fill="#5FD0A8">self-healing ops</text><g transform="translate(942,196)" stroke="#5FD0A8" stroke-width="2" fill="none">
  <circle cx="0" cy="0" r="9"/>
  <g stroke-width="2"><line x1="0" y1="-13" x2="0" y2="-9"/><line x1="0" y1="13" x2="0" y2="9"/><line x1="-13" y1="0" x2="-9" y2="0"/><line x1="13" y1="0" x2="9" y2="0"/><line x1="-9" y1="-9" x2="-6.5" y2="-6.5"/><line x1="9" y1="9" x2="6.5" y2="6.5"/><line x1="9" y1="-9" x2="6.5" y2="-6.5"/><line x1="-9" y1="9" x2="-6.5" y2="6.5"/></g>
  <path d="M-4,0 L-1,3 L5,-4" stroke-width="2.2" stroke-linecap="round" stroke-linejoin="round"/>
</g></g>
  <rect x="2" y="2" width="996" height="296" rx="16" fill="none" stroke="#5BC8E0" stroke-opacity="0.16" stroke-width="2"/>
</svg>