<svg xmlns="http://www.w3.org/2000/svg" viewBox="0 0 900 170" width="900" height="170" role="img" aria-label="AIOps: anomaly detected at 02:14, auto-remediation runbook executed, resolved at 02:16.">
  <defs>
    <pattern id="aigrid" width="26" height="26" patternUnits="userSpaceOnUse">
      <path d="M26 0H0V26" fill="none" stroke="#FFFFFF" stroke-opacity=".05" stroke-width="1"/>
    </pattern>
  </defs>
  <rect width="900" height="170" fill="#0E1E30"/>
  <rect width="900" height="170" fill="url(#aigrid)"/>
  <rect x="1" y="1" width="898" height="168" fill="none" stroke="#6E93B8" stroke-width="2"/>

  <text x="24" y="30" font-family="Courier New, monospace" font-size="12" fill="#F0692B" letter-spacing="2">FIG. AI — DETECT → DIAGNOSE → REMEDIATE</text>
  <text x="876" y="30" text-anchor="end" font-family="Courier New, monospace" font-size="11" fill="#7FA3C4">MTTR: 2 MIN · PAGES: 0</text>

  <rect x="24" y="48" width="470" height="96" rx="10" fill="#13273D" stroke="#D9E8F6" stroke-width="1.6"/>
  <text x="40" y="68" font-family="Courier New, monospace" font-size="9" fill="#7FA3C4">latency p99 — ms</text>
  <line x1="40" y1="126" x2="478" y2="126" stroke="#7FA3C4" stroke-opacity=".6" stroke-width="1"/>
  <polyline points="40,112 76,108 112,113 148,106 184,110 220,104 256,109 292,103 328,74 352,66 376,84 412,102 448,106 478,104"
    fill="none" stroke="#D9E8F6" stroke-width="1.8"/>
  <circle cx="352" cy="66" r="5" fill="none" stroke="#F0692B" stroke-width="2">
    <animate attributeName="r" values="5;9;5" dur="1.8s" repeatCount="indefinite"/>
    <animate attributeName="stroke-opacity" values="1;.3;1" dur="1.8s" repeatCount="indefinite"/>
  </circle>
  <circle cx="352" cy="66" r="2.5" fill="#F0692B"/>
  <line x1="352" y1="66" x2="352" y2="126" stroke="#F0692B" stroke-width="1" stroke-dasharray="3 3"/>
  <text x="352" y="140" text-anchor="middle" font-family="Courier New, monospace" font-size="9" fill="#F0692B">02:14 anomaly</text>

  <path d="M494 96 H534" stroke="#F0692B" stroke-width="1.8" stroke-dasharray="5 5" fill="none">
    <animate attributeName="stroke-dashoffset" from="0" to="-20" dur="1.4s" repeatCount="indefinite"/>
  </path>
  <path d="M529 91 L538 96 L529 101" stroke="#F0692B" stroke-width="1.8" fill="none"/>

  <rect x="538" y="66" width="160" height="60" rx="10" fill="#13273D" stroke="#D9E8F6" stroke-width="1.6"/>
  <text x="618" y="90" text-anchor="middle" font-family="Courier New, monospace" font-size="11" fill="#D9E8F6">AUTO-REMEDIATE</text>
  <text x="618" y="107" text-anchor="middle" font-family="Courier New, monospace" font-size="9" fill="#7FA3C4">runbook: restart + scale</text>

  <path d="M698 96 H738" stroke="#33C08D" stroke-width="1.8" stroke-dasharray="5 5" fill="none">
    <animate attributeName="stroke-dashoffset" from="0" to="-20" dur="1.4s" repeatCount="indefinite"/>
  </path>
  <path d="M733 91 L742 96 L733 101" stroke="#33C08D" stroke-width="1.8" fill="none"/>

  <text x="748" y="92" font-family="Courier New, monospace" font-size="12" fill="#33C08D" opacity="0">RESOLVED ✓
    <animate attributeName="opacity" from="0" to="1" dur=".6s" begin="1s" fill="freeze"/>
  </text>
  <text x="748" y="110" font-family="Courier New, monospace" font-size="10" fill="#7FA3C4" opacity="0">02:16 · budget intact
    <animate attributeName="opacity" from="0" to="1" dur=".6s" begin="1.4s" fill="freeze"/>
  </text>

  <text x="24" y="160" font-family="Courier New, monospace" font-size="9" fill="#7FA3C4">alerts fire on error budgets, not noise — humans get paged when it matters, scripts handle the rest</text>
</svg>
