<svg xmlns="http://www.w3.org/2000/svg" viewBox="0 0 1000 470" width="1000" height="470" role="img" aria-label="Production Kubernetes platform architecture">

  <defs>
    <linearGradient id="abg" x1="0" y1="0" x2="1" y2="1">
      <stop offset="0" stop-color="#080F1C"/><stop offset="1" stop-color="#0E2038"/>
    </linearGradient>
    <radialGradient id="ahalo" cx="0.5" cy="0.42" r="0.5">
      <stop offset="0" stop-color="#27466F" stop-opacity="0.5"/><stop offset="1" stop-color="#27466F" stop-opacity="0"/>
    </radialGradient>
    <linearGradient id="sTop" x1="0" y1="0" x2="0.5" y2="1"><stop offset="0" stop-color="#2C5180"/><stop offset="1" stop-color="#1A3253"/></linearGradient>
    <linearGradient id="sL" x1="0" y1="0" x2="0" y2="1"><stop offset="0" stop-color="#102036"/><stop offset="1" stop-color="#0A1525"/></linearGradient>
    <linearGradient id="sR" x1="0" y1="0" x2="0" y2="1"><stop offset="0" stop-color="#193150"/><stop offset="1" stop-color="#0F2138"/></linearGradient>
    <linearGradient id="nTop" x1="0" y1="0" x2="0.5" y2="1"><stop offset="0" stop-color="#3A6699"/><stop offset="1" stop-color="#244A72"/></linearGradient>
    <linearGradient id="nL" x1="0" y1="0" x2="0" y2="1"><stop offset="0" stop-color="#152A45"/><stop offset="1" stop-color="#0E1E33"/></linearGradient>
    <linearGradient id="nR" x1="0" y1="0" x2="0" y2="1"><stop offset="0" stop-color="#214069"/><stop offset="1" stop-color="#152E4D"/></linearGradient>
    <linearGradient id="gT" x1="0" y1="0" x2="0.5" y2="1"><stop offset="0" stop-color="#EBD58A"/><stop offset="1" stop-color="#C9A84C"/></linearGradient>
    <linearGradient id="bT" x1="0" y1="0" x2="0.5" y2="1"><stop offset="0" stop-color="#7FB4D8"/><stop offset="1" stop-color="#3D6494"/></linearGradient>
    <radialGradient id="acore" cx="0.5" cy="0.4" r="0.6"><stop offset="0" stop-color="#FFF8E6"/><stop offset="0.45" stop-color="#E7CE7E"/><stop offset="1" stop-color="#C9A84C"/></radialGradient>
    <filter id="ag" x="-80%" y="-80%" width="260%" height="260%"><feGaussianBlur stdDeviation="3" result="b"/><feMerge><feMergeNode in="b"/><feMergeNode in="SourceGraphic"/></feMerge></filter>
    <filter id="abig" x="-150%" y="-150%" width="400%" height="400%"><feGaussianBlur stdDeviation="8" result="b"/><feMerge><feMergeNode in="b"/><feMergeNode in="SourceGraphic"/></feMerge></filter>
    <filter id="adrop" x="-60%" y="-60%" width="220%" height="240%"><feDropShadow dx="0" dy="8" stdDeviation="7" flood-color="#000" flood-opacity="0.45"/></filter>
    <style>.l{font-family:'JetBrains Mono',ui-monospace,monospace;} .h{font-family:Georgia,serif;}</style>
  </defs>

  <rect width="1000" height="470" fill="url(#abg)"/>
  <rect width="1000" height="470" fill="url(#ahalo)"/>
  <text class="l" x="34" y="42" font-size="13" letter-spacing="3" fill="#C9A84C">PRODUCTION ARCHITECTURE</text>
  <text class="h" x="33" y="42" font-size="0" fill="#000"></text>
  <!-- connectors behind -->
  <g><line x1="259.0" y1="120.0" x2="500.0" y2="144.7" stroke="#5FD0A8" stroke-opacity="0.22" stroke-width="1.2"/><circle r="2.6" fill="#5FD0A8" filter="url(#ag)"><animateMotion path="M259.0 120.0 L500.0 144.7" dur="2.6s" repeatCount="indefinite"/><animate attributeName="opacity" values="0;1;0" dur="2.6s" repeatCount="indefinite"/></circle><line x1="234.0" y1="235.0" x2="500.0" y2="144.7" stroke="#C9A84C" stroke-opacity="0.22" stroke-width="1.2"/><circle r="2.6" fill="#C9A84C" filter="url(#ag)"><animateMotion path="M234.0 235.0 L500.0 144.7" dur="2.6s" repeatCount="indefinite"/><animate attributeName="opacity" values="0;1;0" dur="2.6s" repeatCount="indefinite"/></circle><line x1="260.0" y1="350.0" x2="500.0" y2="144.7" stroke="#7FB4D8" stroke-opacity="0.22" stroke-width="1.2"/><circle r="2.6" fill="#7FB4D8" filter="url(#ag)"><animateMotion path="M260.0 350.0 L500.0 144.7" dur="2.6s" repeatCount="indefinite"/><animate attributeName="opacity" values="0;1;0" dur="2.6s" repeatCount="indefinite"/></circle><line x1="750.0" y1="120.0" x2="500.0" y2="144.7" stroke="#5BC8E0" stroke-opacity="0.22" stroke-width="1.2"/><circle r="2.6" fill="#5BC8E0" filter="url(#ag)"><animateMotion path="M750.0 120.0 L500.0 144.7" dur="2.6s" repeatCount="indefinite"/><animate attributeName="opacity" values="0;1;0" dur="2.6s" repeatCount="indefinite"/></circle><line x1="766.0" y1="235.0" x2="500.0" y2="144.7" stroke="#C9A84C" stroke-opacity="0.22" stroke-width="1.2"/><circle r="2.6" fill="#C9A84C" filter="url(#ag)"><animateMotion path="M766.0 235.0 L500.0 144.7" dur="2.6s" repeatCount="indefinite"/><animate attributeName="opacity" values="0;1;0" dur="2.6s" repeatCount="indefinite"/></circle><line x1="740.0" y1="350.0" x2="500.0" y2="144.7" stroke="#7FB4D8" stroke-opacity="0.22" stroke-width="1.2"/><circle r="2.6" fill="#7FB4D8" filter="url(#ag)"><animateMotion path="M740.0 350.0 L500.0 144.7" dur="2.6s" repeatCount="indefinite"/><animate attributeName="opacity" values="0;1;0" dur="2.6s" repeatCount="indefinite"/></circle></g>
  <!-- iso cluster -->
  <g><polygon points="290.0,158.0 500.0,263.0 500.0,249.8 290.0,144.8" fill="url(#sL)"/><polygon points="710.0,158.0 500.0,263.0 500.0,249.8 710.0,144.8" fill="url(#sR)"/><polygon points="500.0,39.8 710.0,144.8 500.0,249.8 290.0,144.8" fill="url(#sTop)" stroke="#A8C4E0" stroke-opacity="0.22" stroke-width="1.0"/></g>
<g stroke="#A8C4E0" stroke-opacity="0.10" stroke-width="0.8"><line x1="515.0" y1="47.3" x2="305.0" y2="152.3"/><line x1="485.0" y1="47.3" x2="695.0" y2="152.3"/><line x1="545.0" y1="62.3" x2="335.0" y2="167.3"/><line x1="455.0" y1="62.3" x2="665.0" y2="167.3"/><line x1="575.0" y1="77.3" x2="365.0" y2="182.3"/><line x1="425.0" y1="77.3" x2="635.0" y2="182.3"/><line x1="605.0" y1="92.3" x2="395.0" y2="197.3"/><line x1="395.0" y1="92.3" x2="605.0" y2="197.3"/><line x1="635.0" y1="107.3" x2="425.0" y2="212.3"/><line x1="365.0" y1="107.3" x2="575.0" y2="212.3"/><line x1="665.0" y1="122.3" x2="455.0" y2="227.3"/><line x1="335.0" y1="122.3" x2="545.0" y2="227.3"/><line x1="695.0" y1="137.3" x2="485.0" y2="242.3"/><line x1="305.0" y1="137.3" x2="515.0" y2="242.3"/></g>
<g><polygon points="452.0,87.8 500.0,111.8 500.0,101.7 452.0,77.7" fill="url(#nL)"/><polygon points="548.0,87.8 500.0,111.8 500.0,101.7 548.0,77.7" fill="url(#nR)"/><polygon points="500.0,53.7 548.0,77.7 500.0,101.7 452.0,77.7" fill="url(#nTop)" stroke="#A8C4E0" stroke-opacity="0.3" stroke-width="1.0"/></g>
<g><polygon points="485.0,67.2 500.0,74.7 500.0,62.7 485.0,55.2" fill="#5E4D22"/><polygon points="515.0,67.2 500.0,74.7 500.0,62.7 515.0,55.2" fill="#8A6F30"/><polygon points="500.0,47.7 515.0,55.2 500.0,62.7 485.0,55.2" fill="url(#gT)" stroke="#FBEFC4" stroke-opacity="0.5" stroke-width="0.7"/></g>
<g><polygon points="509.0,116.3 557.0,140.3 557.0,130.2 509.0,106.2" fill="url(#nL)"/><polygon points="605.0,116.3 557.0,140.3 557.0,130.2 605.0,106.2" fill="url(#nR)"/><polygon points="557.0,82.2 605.0,106.2 557.0,130.2 509.0,106.2" fill="url(#nTop)" stroke="#A8C4E0" stroke-opacity="0.3" stroke-width="1.0"/></g>
<g><polygon points="542.0,94.2 557.0,101.7 557.0,89.7 542.0,82.2" fill="#152A45"/><polygon points="572.0,94.2 557.0,101.7 557.0,89.7 572.0,82.2" fill="#244A72"/><polygon points="557.0,74.7 572.0,82.2 557.0,89.7 542.0,82.2" fill="url(#bT)" stroke="#BFE0FF" stroke-opacity="0.5" stroke-width="0.7"/></g>
<g><polygon points="548.0,109.2 563.0,116.7 563.0,104.7 548.0,97.2" fill="#5E4D22"/><polygon points="578.0,109.2 563.0,116.7 563.0,104.7 578.0,97.2" fill="#8A6F30"/><polygon points="563.0,89.7 578.0,97.2 563.0,104.7 548.0,97.2" fill="url(#gT)" stroke="#FBEFC4" stroke-opacity="0.5" stroke-width="0.7"/></g>
<g><polygon points="353.0,137.3 401.0,161.3 401.0,151.2 353.0,127.2" fill="url(#nL)"/><polygon points="449.0,137.3 401.0,161.3 401.0,151.2 449.0,127.2" fill="url(#nR)"/><polygon points="401.0,103.2 449.0,127.2 401.0,151.2 353.0,127.2" fill="url(#nTop)" stroke="#A8C4E0" stroke-opacity="0.3" stroke-width="1.0"/></g>
<g><polygon points="566.0,144.8 614.0,168.8 614.0,158.7 566.0,134.7" fill="url(#nL)"/><polygon points="662.0,144.8 614.0,168.8 614.0,158.7 662.0,134.7" fill="url(#nR)"/><polygon points="614.0,110.7 662.0,134.7 614.0,158.7 566.0,134.7" fill="url(#nTop)" stroke="#A8C4E0" stroke-opacity="0.3" stroke-width="1.0"/></g>
<g><polygon points="395.0,121.2 410.0,128.7 410.0,116.7 395.0,109.2" fill="#152A45"/><polygon points="425.0,121.2 410.0,128.7 410.0,116.7 425.0,109.2" fill="#244A72"/><polygon points="410.0,101.7 425.0,109.2 410.0,116.7 395.0,109.2" fill="url(#bT)" stroke="#BFE0FF" stroke-opacity="0.5" stroke-width="0.7"/></g>
<g><polygon points="587.0,130.2 602.0,137.7 602.0,125.7 587.0,118.2" fill="#5E4D22"/><polygon points="617.0,130.2 602.0,137.7 602.0,125.7 617.0,118.2" fill="#8A6F30"/><polygon points="602.0,110.7 617.0,118.2 602.0,125.7 587.0,118.2" fill="url(#gT)" stroke="#FBEFC4" stroke-opacity="0.5" stroke-width="0.7"/></g>
<g><polygon points="410.0,165.8 458.0,189.8 458.0,179.7 410.0,155.7" fill="url(#nL)"/><polygon points="506.0,165.8 458.0,189.8 458.0,179.7 506.0,155.7" fill="url(#nR)"/><polygon points="458.0,131.7 506.0,155.7 458.0,179.7 410.0,155.7" fill="url(#nTop)" stroke="#A8C4E0" stroke-opacity="0.3" stroke-width="1.0"/></g>
<g><polygon points="443.0,143.7 458.0,151.2 458.0,139.2 443.0,131.7" fill="#5E4D22"/><polygon points="473.0,143.7 458.0,151.2 458.0,139.2 473.0,131.7" fill="#8A6F30"/><polygon points="458.0,124.2 473.0,131.7 458.0,139.2 443.0,131.7" fill="url(#gT)" stroke="#FBEFC4" stroke-opacity="0.5" stroke-width="0.7"/></g>
<g><polygon points="446.0,158.7 461.0,166.2 461.0,154.2 446.0,146.7" fill="#152A45"/><polygon points="476.0,158.7 461.0,166.2 461.0,154.2 476.0,146.7" fill="#244A72"/><polygon points="461.0,139.2 476.0,146.7 461.0,154.2 446.0,146.7" fill="url(#bT)" stroke="#BFE0FF" stroke-opacity="0.5" stroke-width="0.7"/></g>
<g><polygon points="467.0,194.3 515.0,218.3 515.0,208.2 467.0,184.2" fill="url(#nL)"/><polygon points="563.0,194.3 515.0,218.3 515.0,208.2 563.0,184.2" fill="url(#nR)"/><polygon points="515.0,160.2 563.0,184.2 515.0,208.2 467.0,184.2" fill="url(#nTop)" stroke="#A8C4E0" stroke-opacity="0.3" stroke-width="1.0"/></g>
<g><polygon points="500.0,179.7 515.0,187.2 515.0,175.2 500.0,167.7" fill="#152A45"/><polygon points="530.0,179.7 515.0,187.2 515.0,175.2 530.0,167.7" fill="#244A72"/><polygon points="515.0,160.2 530.0,167.7 515.0,175.2 500.0,167.7" fill="url(#bT)" stroke="#BFE0FF" stroke-opacity="0.5" stroke-width="0.7"/></g>
  <line x1="500.0" y1="62.7" x2="500.0" y2="128.7" stroke="#E7CE7E" stroke-opacity="0.5" stroke-width="1.5"><animate attributeName="stroke-opacity" values="0.2;0.7;0.2" dur="2.4s" repeatCount="indefinite"/></line>
  <g>
  <ellipse cx="500.0" cy="50.7" rx="70" ry="24" fill="none" stroke="#5BC8E0" stroke-opacity="0.3" stroke-width="1.2">
    <animateTransform attributeName="transform" type="rotate" from="0 500.0 50.7" to="360 500.0 50.7" dur="20s" repeatCount="indefinite"/>
  </ellipse>
  <circle cx="500.0" cy="50.7" r="13" fill="url(#acore)" filter="url(#abig)"><animate attributeName="r" values="11;14;11" dur="2.8s" repeatCount="indefinite"/></circle>
  <circle cx="500.0" cy="50.7" r="6" fill="#FFF8E6"/>
  <text class="l" x="500.0" y="24.7" text-anchor="middle" font-size="10.5" letter-spacing="1.5" fill="#E7CE7E">CONTROL PLANE</text>
</g>
  <!-- satellites -->
  <g filter="url(#adrop)"><rect x="91.0" y="103.0" width="168" height="34" rx="8" fill="#0F2236" stroke="#5FD0A8" stroke-opacity="0.7" stroke-width="1.3"/><circle cx="109.0" cy="120.0" r="5" fill="#5FD0A8" filter="url(#ag)"/><text class="l" x="123.0" y="124.0" font-size="12.5" fill="#EAF2FB">Ingress · WAF</text></g><g filter="url(#adrop)"><rect x="66.0" y="218.0" width="168" height="34" rx="8" fill="#0F2236" stroke="#C9A84C" stroke-opacity="0.7" stroke-width="1.3"/><circle cx="84.0" cy="235.0" r="5" fill="#C9A84C" filter="url(#ag)"/><text class="l" x="98.0" y="239.0" font-size="12.5" fill="#EAF2FB">Terraform IaC</text></g><g filter="url(#adrop)"><rect x="110.0" y="333.0" width="150" height="34" rx="8" fill="#0F2236" stroke="#7FB4D8" stroke-opacity="0.7" stroke-width="1.3"/><circle cx="128.0" cy="350.0" r="5" fill="#7FB4D8" filter="url(#ag)"/><text class="l" x="142.0" y="354.0" font-size="12.5" fill="#EAF2FB">PostgreSQL</text></g><g filter="url(#adrop)"><rect x="750.0" y="103.0" width="150" height="34" rx="8" fill="#0F2236" stroke="#5BC8E0" stroke-opacity="0.7" stroke-width="1.3"/><circle cx="768.0" cy="120.0" r="5" fill="#5BC8E0" filter="url(#ag)"/><text class="l" x="782.0" y="124.0" font-size="12.5" fill="#EAF2FB">Prometheus</text></g><g filter="url(#adrop)"><rect x="766.0" y="218.0" width="168" height="34" rx="8" fill="#0F2236" stroke="#C9A84C" stroke-opacity="0.7" stroke-width="1.3"/><circle cx="784.0" cy="235.0" r="5" fill="#C9A84C" filter="url(#ag)"/><text class="l" x="798.0" y="239.0" font-size="12.5" fill="#EAF2FB">ArgoCD GitOps</text></g><g filter="url(#adrop)"><rect x="740.0" y="333.0" width="150" height="34" rx="8" fill="#0F2236" stroke="#7FB4D8" stroke-opacity="0.7" stroke-width="1.3"/><circle cx="758.0" cy="350.0" r="5" fill="#7FB4D8" filter="url(#ag)"/><text class="l" x="772.0" y="354.0" font-size="12.5" fill="#EAF2FB">Redis · S3</text></g>
  <text class="l" x="500.0" y="444" text-anchor="middle" font-size="11.5" letter-spacing="1" fill="#A8C4E0" fill-opacity="0.8">Multi-node Kubernetes · provisioned with Terraform · delivered via GitOps · observed end-to-end</text>
  <rect x="2" y="2" width="996" height="466" rx="16" fill="none" stroke="#C9A84C" stroke-opacity="0.18" stroke-width="2"/>
</svg>