<svg xmlns="http://www.w3.org/2000/svg" viewBox="0 0 1000 220" width="1000" height="220" role="img" aria-label="CI/CD pipeline: code, build, test, scan, deploy, monitor">

  <defs>
    <linearGradient id="pbg" x1="0" y1="0" x2="1" y2="1"><stop offset="0" stop-color="#0A1322"/><stop offset="0.5" stop-color="#0D1B30"/><stop offset="1" stop-color="#12283F"/></linearGradient>
    <radialGradient id="phalo" cx="0.5" cy="0.45" r="0.6"><stop offset="0" stop-color="#25446C" stop-opacity="0.4"/><stop offset="1" stop-color="#25446C" stop-opacity="0"/></radialGradient>
    <linearGradient id="cardTop" x1="0" y1="0" x2="0" y2="1"><stop offset="0" stop-color="#1C3552"/><stop offset="1" stop-color="#142a45"/></linearGradient>
    <linearGradient id="card" x1="0" y1="0" x2="0" y2="1"><stop offset="0" stop-color="#1B3252"/><stop offset="1" stop-color="#10223A"/></linearGradient>
    <linearGradient id="cardSheen" x1="0" y1="0" x2="0" y2="1"><stop offset="0" stop-color="#BFE0FF" stop-opacity="0.16"/><stop offset="0.5" stop-color="#BFE0FF" stop-opacity="0"/></linearGradient>
    <filter id="pg" x="-100%" y="-100%" width="300%" height="300%"><feGaussianBlur stdDeviation="2.6" result="b"/><feMerge><feMergeNode in="b"/><feMergeNode in="SourceGraphic"/></feMerge></filter>
    <filter id="pdrop" x="-60%" y="-60%" width="220%" height="260%"><feDropShadow dx="0" dy="7" stdDeviation="6" flood-color="#000" flood-opacity="0.5"/></filter>
    <style>.l{font-family:'JetBrains Mono',ui-monospace,monospace;}</style>
  </defs>

  <rect width="1000" height="220" fill="url(#pbg)"/>
  <rect width="1000" height="220" fill="url(#phalo)"/>
  <text class="l" x="32" y="40" font-size="13" letter-spacing="3" fill="#C9A84C">CI / CD  PIPELINE</text>
  <g class="l" font-size="10" fill="#5FD0A8"><circle cx="930" cy="35" r="4.5" filter="url(#pg)" fill="#5FD0A8"><animate attributeName="opacity" values="1;0.3;1" dur="1.8s" repeatCount="indefinite"/></circle><text x="946" y="39" fill="#5FD0A8">LIVE</text></g>
  <line x1="90" y1="112" x2="910" y2="112" stroke="#22405E" stroke-width="3"/><line x1="90" y1="112" x2="910" y2="112" stroke="#3D6494" stroke-width="2" stroke-dasharray="5 9"><animate attributeName="stroke-dashoffset" values="28;0" dur="1.2s" repeatCount="indefinite"/></line>
  <g filter="url(#pdrop)"><rect x="30.0" y="83.0" width="120" height="72" rx="13" fill="#0A1626"/><rect x="30.0" y="76.0" width="120" height="72" rx="13" fill="url(#card)" stroke="#7FB4D8" stroke-opacity="0.55" stroke-width="1.4"/><rect x="30.0" y="76.0" width="120" height="36.0" rx="13" fill="url(#cardSheen)"/><rect x="44.0" y="81.0" width="92" height="3" rx="1.5" fill="#7FB4D8" opacity="0.85"/><g transform="translate(90,106.0)"><g stroke="#7FB4D8" stroke-width="2" fill="none" stroke-linecap="round" stroke-linejoin="round"><path d="M-7,-5 L-12,0 L-7,5"/><path d="M7,-5 L12,0 L7,5"/><line x1="2" y1="-6" x2="-2" y2="6"/></g></g><text class="l" x="90" y="136.0" text-anchor="middle" font-size="12.5" fill="#EAF2FB">Code</text></g><circle cx="90" cy="66.0" r="3.6" fill="#C9A84C"><animate attributeName="opacity" values="0.3;1;0.3" dur="6s" begin="0s" repeatCount="indefinite"/></circle><g filter="url(#pdrop)"><rect x="194.0" y="83.0" width="120" height="72" rx="13" fill="#0A1626"/><rect x="194.0" y="76.0" width="120" height="72" rx="13" fill="url(#card)" stroke="#C9A84C" stroke-opacity="0.55" stroke-width="1.4"/><rect x="194.0" y="76.0" width="120" height="36.0" rx="13" fill="url(#cardSheen)"/><rect x="208.0" y="81.0" width="92" height="3" rx="1.5" fill="#C9A84C" opacity="0.85"/><g transform="translate(254,106.0)"><g stroke="#C9A84C" stroke-width="2" fill="none"><circle cx="0" cy="0" r="5"/><g stroke-width="2"><line x1="0" y1="-11" x2="0" y2="-7"/><line x1="0" y1="11" x2="0" y2="7"/><line x1="-11" y1="0" x2="-7" y2="0"/><line x1="11" y1="0" x2="7" y2="0"/><line x1="-8" y1="-8" x2="-5.5" y2="-5.5"/><line x1="8" y1="8" x2="5.5" y2="5.5"/><line x1="8" y1="-8" x2="5.5" y2="-5.5"/><line x1="-8" y1="8" x2="-5.5" y2="5.5"/></g></g></g><text class="l" x="254" y="136.0" text-anchor="middle" font-size="12.5" fill="#EAF2FB">Build</text></g><circle cx="254" cy="66.0" r="3.6" fill="#C9A84C"><animate attributeName="opacity" values="0.3;1;0.3" dur="6s" begin="1s" repeatCount="indefinite"/></circle><g filter="url(#pdrop)"><rect x="358.0" y="83.0" width="120" height="72" rx="13" fill="#0A1626"/><rect x="358.0" y="76.0" width="120" height="72" rx="13" fill="url(#card)" stroke="#7FB4D8" stroke-opacity="0.55" stroke-width="1.4"/><rect x="358.0" y="76.0" width="120" height="36.0" rx="13" fill="url(#cardSheen)"/><rect x="372.0" y="81.0" width="92" height="3" rx="1.5" fill="#7FB4D8" opacity="0.85"/><g transform="translate(418,106.0)"><g stroke="#7FB4D8" stroke-width="2" fill="none" stroke-linecap="round" stroke-linejoin="round"><rect x="-9" y="-9" width="18" height="18" rx="3"/><path d="M-5,-1 L-1.5,3 L5,-5"/></g></g><text class="l" x="418" y="136.0" text-anchor="middle" font-size="12.5" fill="#EAF2FB">Test</text></g><circle cx="418" cy="66.0" r="3.6" fill="#C9A84C"><animate attributeName="opacity" values="0.3;1;0.3" dur="6s" begin="2s" repeatCount="indefinite"/></circle><g filter="url(#pdrop)"><rect x="522.0" y="83.0" width="120" height="72" rx="13" fill="#0A1626"/><rect x="522.0" y="76.0" width="120" height="72" rx="13" fill="url(#card)" stroke="#5FD0A8" stroke-opacity="0.55" stroke-width="1.4"/><rect x="522.0" y="76.0" width="120" height="36.0" rx="13" fill="url(#cardSheen)"/><rect x="536.0" y="81.0" width="92" height="3" rx="1.5" fill="#5FD0A8" opacity="0.85"/><g transform="translate(582,106.0)"><g><path d="M0,-11 L9,-7 V2 c0,7 -4.5,10.5 -9,13 c-4.5,-2.5 -9,-6 -9,-13 V-7 Z" fill="none" stroke="#5FD0A8" stroke-width="2" stroke-linejoin="round"/><path d="M-4,1 L-1,4 L4,-3" fill="none" stroke="#5FD0A8" stroke-width="2" stroke-linecap="round" stroke-linejoin="round"/></g></g><text class="l" x="582" y="136.0" text-anchor="middle" font-size="12.5" fill="#EAF2FB">Scan</text></g><circle cx="582" cy="66.0" r="3.6" fill="#5FD0A8"><animate attributeName="opacity" values="0.3;1;0.3" dur="6s" begin="3s" repeatCount="indefinite"/></circle><g filter="url(#pdrop)"><rect x="686.0" y="83.0" width="120" height="72" rx="13" fill="#0A1626"/><rect x="686.0" y="76.0" width="120" height="72" rx="13" fill="url(#card)" stroke="#C9A84C" stroke-opacity="0.55" stroke-width="1.4"/><rect x="686.0" y="76.0" width="120" height="36.0" rx="13" fill="url(#cardSheen)"/><rect x="700.0" y="81.0" width="92" height="3" rx="1.5" fill="#C9A84C" opacity="0.85"/><g transform="translate(746,106.0)"><g stroke="#C9A84C" stroke-width="2" fill="none" stroke-linecap="round" stroke-linejoin="round"><path d="M0,-11 C5,-6 5,2 0,9 C-5,2 -5,-6 0,-11 Z"/><circle cx="0" cy="-3" r="2.2" fill="#C9A84C" stroke="none"/><path d="M-4,9 L-7,13 M4,9 L7,13"/></g></g><text class="l" x="746" y="136.0" text-anchor="middle" font-size="12.5" fill="#EAF2FB">Deploy</text></g><circle cx="746" cy="66.0" r="3.6" fill="#C9A84C"><animate attributeName="opacity" values="0.3;1;0.3" dur="6s" begin="4s" repeatCount="indefinite"/></circle><g filter="url(#pdrop)"><rect x="850.0" y="83.0" width="120" height="72" rx="13" fill="#0A1626"/><rect x="850.0" y="76.0" width="120" height="72" rx="13" fill="url(#card)" stroke="#5FD0A8" stroke-opacity="0.55" stroke-width="1.4"/><rect x="850.0" y="76.0" width="120" height="36.0" rx="13" fill="url(#cardSheen)"/><rect x="864.0" y="81.0" width="92" height="3" rx="1.5" fill="#5FD0A8" opacity="0.85"/><g transform="translate(910,106.0)"><path d="M-11,0 H-6 L-3,-8 L2,8 L5,0 H11" fill="none" stroke="#5FD0A8" stroke-width="2" stroke-linecap="round" stroke-linejoin="round"/></g><text class="l" x="910" y="136.0" text-anchor="middle" font-size="12.5" fill="#EAF2FB">Monitor</text></g><circle cx="910" cy="66.0" r="3.6" fill="#5FD0A8"><animate attributeName="opacity" values="0.3;1;0.3" dur="6s" begin="5s" repeatCount="indefinite"/></circle>
  <rect x="-6" y="-6" width="12" height="12" rx="2.5" fill="#C9A84C" stroke="#FBEFC4" stroke-opacity="0.6" filter="url(#pg)"><animateMotion path="M90 112 H910" dur="6s" repeatCount="indefinite"/></rect>
  <rect x="2" y="2" width="996" height="216" rx="16" fill="none" stroke="#C9A84C" stroke-opacity="0.18" stroke-width="2"/>
</svg>